<svg xmlns="http://www.w3.org/2000/svg" xmlns:xlink="http://www.w3.org/1999/xlink" viewBox="0 0 750 500"><defs><style>.cls-1{isolation:isolate;}.cls-2{mix-blend-mode:multiply;fill:url(#Dégradé_sans_nom_12);}.cls-3{font-size:12px;font-family:AzonixRegular, Azonix;}.cls-3,.cls-8{fill:#152e48;}.cls-4{letter-spacing:-0.04em;}.cls-5{letter-spacing:-0.2em;}.cls-6{letter-spacing:-0.06em;}.cls-7{letter-spacing:-0.03em;}.cls-8{stroke:#152e48;stroke-miterlimit:10;stroke-width:3px;}.cls-9{fill:#1b1a1b;}</style><radialGradient id="Dégradé_sans_nom_12" cx="333.33" cy="250" r="393.08" gradientTransform="translate(-125) scale(1.5 1)" gradientUnits="userSpaceOnUse"><stop offset="0" stop-color="#fff"/><stop offset="0.26" stop-color="#fcfeff"/><stop offset="0.42" stop-color="#f4fbff"/><stop offset="0.56" stop-color="#e5f5ff"/><stop offset="0.68" stop-color="#d1edff"/><stop offset="0.79" stop-color="#b6e3ff"/><stop offset="0.89" stop-color="#95d6ff"/><stop offset="0.99" stop-color="#6fc8ff"/><stop offset="1" stop-color="#6ac6ff"/></radialGradient></defs><g class="cls-1"><g id="Calque_2" data-name="Calque 2"><g id="BACKGROUND"><rect class="cls-2" width="750" height="500"/></g><g id="OBJECTS"><text class="cls-3" transform="translate(408.12 188.05)">3 Nou<tspan class="cls-4" x="43.67" y="0">v</tspan><tspan x="51.95" y="0">elles c</tspan><tspan class="cls-5" x="111.86" y="0">a</tspan><tspan x="118.3" y="0">t</tspan><tspan class="cls-6" x="127.9" y="0">e</tspan><tspan x="136.83" y="0">gories :</tspan><tspan x="0" y="28.8">Terrorisme</tspan><tspan x="0" y="57.6">e</tspan><tspan class="cls-4" x="9.6" y="57.6">v</tspan><tspan x="17.88" y="57.6">enementiel/indu</tspan><tspan class="cls-7" x="142.14" y="57.6">s</tspan><tspan x="150.88" y="57.6">triel</tspan><tspan x="0" y="86.4">professionnel</tspan></text><line class="cls-8" x1="393.54" y1="179.65" x2="395.14" y2="274.49"/><image width="348" height="675" transform="translate(142.38 24.36) scale(0.63 0.6)" xlink:href="../../../../../../../../../image%20(3).png"/><path class="cls-9" d="M344.93,24.94c9.75,0,17.67,6.7,17.67,14.93v374.4c0,8.23-7.92,14.93-17.67,14.93H160.06c-9.75,0-17.68-6.7-17.68-14.93V39.87c0-8.23,7.93-14.93,17.68-14.93H344.93m0-4.59H160.06c-12.71,0-23.11,8.78-23.11,19.52v374.4c0,10.74,10.4,19.53,23.11,19.53H344.93c12.71,0,23.11-8.79,23.11-19.53V39.87c0-10.74-10.4-19.52-23.11-19.52Z"/></g></g></g></svg>