<svg xmlns="http://www.w3.org/2000/svg" xmlns:xlink="http://www.w3.org/1999/xlink" viewBox="0 0 262.34 531.4"><defs><style>.cls-1,.cls-4{fill:#1b1a1b;}.cls-1{opacity:0.7;}.cls-2{opacity:0.3;}.cls-3{fill:#fff;}.cls-5{fill:#000100;}</style></defs><g id="Calque_2" data-name="Calque 2"><g id="OBJECTS"><image width="348" height="723" transform="translate(2.82 2.95) scale(0.72 0.72)" xlink:href="../../../../../../../../../imageonline-co-roundcorner%20(3).png"/><path class="cls-1" d="M259.25,484.65v21.66c0,12.2-10.37,22.14-23.15,22.14H26.23c-12.76,0-23.15-9.94-23.15-22.14V484.65Z"/><g class="cls-2"><path class="cls-3" d="M168.9,505.91H93.44a1.45,1.45,0,1,1,0-2.89H168.9a1.45,1.45,0,1,1,0,2.89Z"/></g><path class="cls-4" d="M236.1,5.9c11.07,0,20.07,8.61,20.07,19.19V506.31c0,10.58-9,19.19-20.07,19.19H26.23c-11.06,0-20.06-8.61-20.06-19.19V25.09c0-10.58,9-19.19,20.06-19.19H236.1m0-5.9H26.23C11.81,0,0,11.29,0,25.09V506.31c0,13.8,11.81,25.09,26.23,25.09H236.1c14.43,0,26.24-11.29,26.24-25.09V25.09C262.34,11.29,250.53,0,236.1,0Z"/><path class="cls-4" d="M194.51,3c0,11.41-6.65,20.65-14.86,20.65h-97C74.48,23.6,67.83,14.36,67.83,3Z"/><path class="cls-5" d="M218.2,21.42a.81.81,0,1,0,.84.8A.83.83,0,0,0,218.2,21.42Zm-1.92-1,.74.7a1.73,1.73,0,0,1,1.18-.46,1.71,1.71,0,0,1,1.17.46l.74-.7a2.79,2.79,0,0,0-3.83,0Zm-1.62-1.55.74.71a4.07,4.07,0,0,1,5.59,0l.74-.71a5.16,5.16,0,0,0-7.07,0Zm3.54-3.36a7.21,7.21,0,0,0-5,2l.74.7a6.2,6.2,0,0,1,8.49,0l.74-.7A7.2,7.2,0,0,0,218.2,15.48Z"/><path class="cls-5" d="M209.78,16.58v6.17h1V16.58Zm-1.95,6.17h1v-5h-1Zm-1.94,0h1V18.83h-1Zm-1.95,0h1V20h-1Zm-2,0H203V21.09H202Z"/><path class="cls-5" d="M226.48,18.27v3.18a.82.82,0,0,0,.84.8H235V17.46h-7.68A.82.82,0,0,0,226.48,18.27Zm11.94.81v-.91A1.36,1.36,0,0,0,237,16.84h-9.81a1.36,1.36,0,0,0-1.39,1.33v3.37a1.36,1.36,0,0,0,1.39,1.33H237a1.36,1.36,0,0,0,1.39-1.33v-.9h.63V19.08Zm-.26,2.46A1.1,1.1,0,0,1,237,22.62h-9.81a1.12,1.12,0,0,1-1.14-1.08V18.17a1.12,1.12,0,0,1,1.14-1.08H237a1.1,1.1,0,0,1,1.13,1.08Z"/></g></g></svg>