<svg xmlns="http://www.w3.org/2000/svg" xmlns:xlink="http://www.w3.org/1999/xlink" viewBox="0 0 170 360"><defs><style>.cls-1,.cls-4{fill:#1b1a1b;}.cls-1{opacity:0.7;}.cls-2{opacity:0.3;}.cls-3{fill:#fff;}.cls-5{fill:#000100;}</style></defs><g id="Calque_2" data-name="Calque 2"><g id="OBJECTS"><image width="348" height="675" transform="translate(3.59 4) scale(0.47 0.52)" xlink:href="../../../../../../../../../image%20(3).png"/><path class="cls-1" d="M168,328.33V343a15,15,0,0,1-15,15H17A15,15,0,0,1,2,343V328.33Z"/><g class="cls-2"><path class="cls-3" d="M109.45,342.73H60.55a1,1,0,1,1,0-2h48.9a1,1,0,0,1,0,2Z"/></g><path class="cls-4" d="M153,4a13,13,0,0,1,13,13V343a13,13,0,0,1-13,13H17A13,13,0,0,1,4,343V17A13,13,0,0,1,17,4H153m0-4H17A17,17,0,0,0,0,17V343a17,17,0,0,0,17,17H153a17,17,0,0,0,17-17V17A17,17,0,0,0,153,0Z"/><path class="cls-4" d="M126.05,2c0,7.73-4.31,14-9.64,14H53.59C48.27,16,44,9.73,44,2Z"/><path class="cls-5" d="M141.4,14.51a.55.55,0,1,0,.54.55A.54.54,0,0,0,141.4,14.51Zm-1.25-.7.48.48a1.07,1.07,0,0,1,1.53,0l.48-.48a1.77,1.77,0,0,0-2.49,0Zm-1.05-1.05.48.48a2.57,2.57,0,0,1,3.63,0l.48-.48a3.25,3.25,0,0,0-4.59,0Zm2.3-2.28a4.56,4.56,0,0,0-3.24,1.35l.48.47a3.9,3.9,0,0,1,5.51,0l.47-.47A4.54,4.54,0,0,0,141.4,10.48Z"/><path class="cls-5" d="M135.94,11.23v4.18h.68V11.23Zm-1.26,4.18h.67V12h-.67Zm-1.26,0h.67V12.76h-.67Zm-1.27,0h.68V13.52h-.68Zm-1.26,0h.68V14.29h-.68Z"/><path class="cls-5" d="M146.76,12.37v2.16a.54.54,0,0,0,.55.54h5V11.83h-5A.54.54,0,0,0,146.76,12.37Zm7.74.55v-.61a.9.9,0,0,0-.9-.9h-6.36a.9.9,0,0,0-.9.9V14.6a.89.89,0,0,0,.9.89h6.36a.89.89,0,0,0,.9-.89V14h.41V12.92Zm-.17,1.68a.73.73,0,0,1-.73.73h-6.36a.73.73,0,0,1-.73-.73V12.31a.73.73,0,0,1,.73-.73h6.36a.73.73,0,0,1,.73.73Z"/></g></g></svg>