<svg xmlns="http://www.w3.org/2000/svg" xmlns:xlink="http://www.w3.org/1999/xlink" viewBox="0 0 262.34 531.4"><defs><style>.cls-1,.cls-4{fill:#1b1a1b;}.cls-1{opacity:0.7;}.cls-2{opacity:0.3;}.cls-3{fill:#fff;}.cls-5{fill:#dadada;}</style></defs><g id="Calque_2" data-name="Calque 2"><g id="OBJECTS"><image width="354" height="718" transform="translate(4.5 2.95) scale(0.72 0.73)" xlink:href="../../../../../../../../../imageonline-co-roundcorner%20(2).png"/><path class="cls-1" d="M260.92,484.65v21.66c0,12.2-10.37,22.14-23.15,22.14H27.9c-12.76,0-23.15-9.94-23.15-22.14V484.65Z"/><g class="cls-2"><path class="cls-3" d="M170.58,505.91H95.11a1.45,1.45,0,1,1,0-2.89h75.47a1.45,1.45,0,1,1,0,2.89Z"/></g><path class="cls-4" d="M236.1,5.9c11.07,0,20.07,8.61,20.07,19.19V506.31c0,10.58-9,19.19-20.07,19.19H26.23c-11.06,0-20.06-8.61-20.06-19.19V25.09c0-10.58,9-19.19,20.06-19.19H236.1m0-5.9H26.23C11.81,0,0,11.29,0,25.09V506.31c0,13.8,11.81,25.09,26.23,25.09H236.1c14.43,0,26.24-11.29,26.24-25.09V25.09C262.34,11.29,250.53,0,236.1,0Z"/><path class="cls-4" d="M179.84.47c0,11.4-6.65,20.64-14.86,20.64H68c-8.21,0-14.87-9.24-14.87-20.64Z"/><path class="cls-5" d="M101.09,7.2A1.8,1.8,0,1,1,99.3,9,1.8,1.8,0,0,1,101.09,7.2Z"/><path class="cls-5" d="M92.45,7.42a1.58,1.58,0,1,1,0,3.16H72.05a1.58,1.58,0,1,1,0-3.16Z"/></g></g></svg>