<svg xmlns="http://www.w3.org/2000/svg" xmlns:xlink="http://www.w3.org/1999/xlink" viewBox="0 0 262.34 531.4"><defs><style>.cls-1,.cls-4{fill:#1b1a1b;}.cls-1{opacity:0.7;}.cls-2{opacity:0.3;}.cls-3{fill:#fff;}.cls-5{fill:#000100;}</style></defs><g id="Calque_2" data-name="Calque 2"><g id="OBJECTS"><image width="344" height="698" transform="translate(3.07 7.42) scale(0.75 0.75)" xlink:href="../../../../../../../../../imageonline-co-roundcorner%20(4).png"/><path class="cls-1" d="M260.92,484.65v21.66c0,12.2-10.37,22.14-23.15,22.14H27.9c-12.76,0-23.15-9.94-23.15-22.14V484.65Z"/><g class="cls-2"><path class="cls-3" d="M170.58,505.91H95.11a1.45,1.45,0,1,1,0-2.89h75.47a1.45,1.45,0,1,1,0,2.89Z"/></g><path class="cls-4" d="M236.1,5.9c11.07,0,20.07,8.61,20.07,19.19V506.31c0,10.58-9,19.19-20.07,19.19H26.23c-11.06,0-20.06-8.61-20.06-19.19V25.09c0-10.58,9-19.19,20.06-19.19H236.1m0-5.9H26.23C11.81,0,0,11.29,0,25.09V506.31c0,13.8,11.81,25.09,26.23,25.09H236.1c14.43,0,26.24-11.29,26.24-25.09V25.09C262.34,11.29,250.53,0,236.1,0Z"/><path class="cls-4" d="M179.84.47c0,11.4-6.65,20.64-14.86,20.64H68c-8.21,0-14.87-9.24-14.87-20.64Z"/><path class="cls-5" d="M219.87,21.42a.81.81,0,1,0,.84.8A.82.82,0,0,0,219.87,21.42Zm-1.92-1,.74.7a1.74,1.74,0,0,1,2.36,0l.74-.7a2.81,2.81,0,0,0-3.84,0Zm-1.62-1.55.74.71a4,4,0,0,1,2.8-1.11,4,4,0,0,1,2.79,1.11l.75-.71a5.18,5.18,0,0,0-7.08,0Zm3.54-3.36a7.17,7.17,0,0,0-5,2l.73.7a6.2,6.2,0,0,1,8.49,0l.74-.7A7.19,7.19,0,0,0,219.87,15.48Z"/><path class="cls-5" d="M211.45,16.58v6.17h1.05V16.58Zm-1.94,6.17h1v-5h-1Zm-1.95,0h1V18.83h-1Zm-1.95,0h1V20h-1Zm-2,0h1.05V21.09h-1.05Z"/><path class="cls-5" d="M228.15,18.27v3.18a.82.82,0,0,0,.84.8h7.68V17.46H229A.82.82,0,0,0,228.15,18.27Zm11.95.81v-.91a1.36,1.36,0,0,0-1.4-1.33h-9.81a1.36,1.36,0,0,0-1.39,1.33v3.37a1.36,1.36,0,0,0,1.39,1.33h9.81a1.36,1.36,0,0,0,1.4-1.33v-.9h.62V19.08Zm-.26,2.46a1.11,1.11,0,0,1-1.14,1.08h-9.81a1.11,1.11,0,0,1-1.13-1.08V18.17a1.11,1.11,0,0,1,1.13-1.08h9.81a1.11,1.11,0,0,1,1.14,1.08Z"/></g></g></svg>