<svg xmlns="http://www.w3.org/2000/svg" xmlns:xlink="http://www.w3.org/1999/xlink" viewBox="0 0 750 500"><defs><style>.cls-1{isolation:isolate;}.cls-2{mix-blend-mode:multiply;fill:url(#Dégradé_sans_nom_12);}.cls-10,.cls-11,.cls-12,.cls-13,.cls-18,.cls-3,.cls-9{font-size:12px;}.cls-19,.cls-3{fill:#152e48;}.cls-3{font-family:AzonixRegular, Azonix;}.cls-18,.cls-4{letter-spacing:-0.03em;}.cls-5{letter-spacing:-0.04em;}.cls-6{letter-spacing:-0.21em;}.cls-7{letter-spacing:-0.03em;}.cls-8{font-size:24px;}.cls-10{letter-spacing:-0.15em;}.cls-11{letter-spacing:0em;}.cls-12{letter-spacing:-0.2em;}.cls-13{letter-spacing:-0.06em;}.cls-14{letter-spacing:-0.07em;}.cls-15{letter-spacing:-0.2em;}.cls-16{letter-spacing:-0.03em;}.cls-17{letter-spacing:-0.08em;}.cls-19{stroke:#152e48;stroke-miterlimit:10;stroke-width:3px;}.cls-20,.cls-23{fill:#1b1a1b;}.cls-20{opacity:0.7;}.cls-21{opacity:0.3;}.cls-22{fill:#fff;}</style><radialGradient id="Dégradé_sans_nom_12" cx="333.33" cy="250" r="393.08" gradientTransform="translate(-125) scale(1.5 1)" gradientUnits="userSpaceOnUse"><stop offset="0" stop-color="#fff"/><stop offset="0.26" stop-color="#fcfeff"/><stop offset="0.42" stop-color="#f4fbff"/><stop offset="0.56" stop-color="#e5f5ff"/><stop offset="0.68" stop-color="#d1edff"/><stop offset="0.79" stop-color="#b6e3ff"/><stop offset="0.89" stop-color="#95d6ff"/><stop offset="0.99" stop-color="#6fc8ff"/><stop offset="1" stop-color="#6ac6ff"/></radialGradient></defs><g class="cls-1"><g id="Calque_2" data-name="Calque 2"><g id="BACKGROUND"><rect class="cls-2" width="750" height="500"/></g><g id="OBJECTS"><image width="356" height="652" transform="translate(142.38 20.71) scale(0.62 0.63)" xlink:href="../../../../../../../../../image%20(4).png"/><text class="cls-3" transform="translate(408.12 188.05)">Un nomre de que<tspan class="cls-4" x="131.31" y="0">s</tspan><tspan x="140.06" y="0">tions</tspan><tspan class="cls-5" x="0" y="14.4">p</tspan><tspan x="8.23" y="14.4">ou</tspan><tspan class="cls-6" x="26.86" y="14.4">v</tspan><tspan x="33.1" y="14.4">ant </tspan><tspan class="cls-7" x="66.95" y="14.4">a</tspan><tspan x="75.44" y="14.4">ller jusqu’a</tspan><tspan class="cls-8"><tspan x="0" y="43.2">50</tspan><tspan class="cls-9" x="37.66" y="43.2"> </tspan><tspan class="cls-10" x="43.5" y="43.2">p</tspan><tspan class="cls-11" x="50.41" y="43.2">ar c</tspan><tspan class="cls-12" x="83.3" y="43.2">a</tspan><tspan class="cls-9" x="89.74" y="43.2">t</tspan><tspan class="cls-13" x="99.34" y="43.2">e</tspan><tspan class="cls-9" x="108.28" y="43.2">gorie</tspan></tspan><tspan class="cls-5" x="0" y="72">P</tspan><tspan x="8.23" y="72">our un </tspan><tspan class="cls-14" x="66.5" y="72">to</tspan><tspan class="cls-15" x="83.54" y="72">t</tspan><tspan class="cls-16" x="90.77" y="72">a</tspan><tspan x="99.26" y="72">l de p</tspan><tspan class="cls-17" x="147.03" y="72">l</tspan><tspan x="154.23" y="72">us de </tspan><tspan class="cls-8"><tspan x="0" y="100.8">500</tspan><tspan class="cls-9" x="56.11" y="100.8" xml:space="preserve"> que</tspan><tspan class="cls-18" x="90.75" y="100.8">s</tspan><tspan class="cls-9" x="99.5" y="100.8">tions</tspan></tspan></text><line class="cls-19" x1="393.54" y1="179.65" x2="395.38" y2="288.92"/><path class="cls-20" d="M366.79,397.42v16.85c0,9.5-9.14,17.23-20.39,17.23H161.52c-11.24,0-20.39-7.73-20.39-17.23V397.42Z"/><g class="cls-21"><path class="cls-22" d="M287.21,414H220.73a1.14,1.14,0,1,1,0-2.25h66.48a1.14,1.14,0,1,1,0,2.25Z"/></g><path class="cls-23" d="M344.93,24.94c9.75,0,17.67,6.7,17.67,14.93v374.4c0,8.23-7.92,14.93-17.67,14.93H160.06c-9.75,0-17.68-6.7-17.68-14.93V39.87c0-8.23,7.93-14.93,17.68-14.93H344.93m0-4.59H160.06c-12.71,0-23.11,8.78-23.11,19.52v374.4c0,10.74,10.4,19.53,23.11,19.53H344.93c12.71,0,23.11-8.79,23.11-19.53V39.87c0-10.74-10.4-19.52-23.11-19.52Z"/></g></g></g></svg>