<svg xmlns="http://www.w3.org/2000/svg" xmlns:xlink="http://www.w3.org/1999/xlink" viewBox="0 0 170 360"><defs><style>.cls-1,.cls-4{fill:#1b1a1b;}.cls-1{opacity:0.7;}.cls-2{opacity:0.3;}.cls-3{fill:#fff;}</style></defs><g id="Calque_2" data-name="Calque 2"><g id="OBJECTS"><image width="348" height="675" transform="translate(3.59 4) scale(0.47 0.52)" xlink:href="../../../../../../../../../image%20(3).png"/><path class="cls-1" d="M168,328.33V343a15,15,0,0,1-15,15H17A15,15,0,0,1,2,343V328.33Z"/><g class="cls-2"><path class="cls-3" d="M109.45,342.73H60.55a1,1,0,1,1,0-2h48.9a1,1,0,0,1,0,2Z"/></g><path class="cls-4" d="M153,4a13,13,0,0,1,13,13V343a13,13,0,0,1-13,13H17A13,13,0,0,1,4,343V17A13,13,0,0,1,17,4H153m0-4H17A17,17,0,0,0,0,17V343a17,17,0,0,0,17,17H153a17,17,0,0,0,17-17V17A17,17,0,0,0,153,0Z"/></g></g></svg>