<svg xmlns="http://www.w3.org/2000/svg" xmlns:xlink="http://www.w3.org/1999/xlink" viewBox="0 0 214.18 222.25"><defs><style>.cls-1{fill:none;}.cls-2{fill:#9fd5ff;}.cls-3{fill:#152d49;}.cls-4{clip-path:url(#clip-path);}.cls-5{clip-path:url(#clip-path-2);}.cls-6{clip-path:url(#clip-path-3);}.cls-7{fill:#142c47;}</style><clipPath id="clip-path"><path id="SVGID" class="cls-1" d="M109.63,81.25c-41.44,0-75,24.15-75,53.94s33.59,53.95,75,53.95,75-24.15,75-53.95S151.07,81.25,109.63,81.25Zm0,66.17c-5,0-9-2.74-9-6.12s4-6.11,9-6.11,9,2.74,9,6.11S114.61,147.42,109.63,147.42Z"/></clipPath><clipPath id="clip-path-2"><rect id="SVGID-2" data-name="SVGID" class="cls-1" x="63.92" y="101.09" width="90.81" height="88.27"/></clipPath><clipPath id="clip-path-3"><rect id="SVGID-3" data-name="SVGID" class="cls-1" x="11.13" y="112.27" width="196.58" height="96.74"/></clipPath></defs><g id="Calque_2" data-name="Calque 2"><g id="Layer_1" data-name="Layer 1"><path class="cls-2" d="M18.29,133c.16-1.93-.29,1-.75-3.5-.37-1.16-.62-1.47-.75-1.41a4.82,4.82,0,0,1,.39,1.31c.19.68.4,1.54.61,2.42.13.52.25,1,.37,1.52a5.76,5.76,0,0,0,.34.62c-.05-.19-.09-.38-.12-.53Z"/><path class="cls-2" d="M211.31,91.8s-.15-.56-.36-1.41-.47-2-.84-3.07c-.05-.14-.09-.27-.13-.41C199.71,38,157.71,1.41,107.46,1.41q-3,0-5.93.18c1-.13,2.25-.17,3.63-.24.79,0,1.62-.08,2.46-.1l2.5,0h2.36c.74,0,1.43.06,2,.06a9.33,9.33,0,0,0,2.4-.11l-2.75-.1c-.48,0-1,0-1.44-.06h-4.55c-.52,0-1,0-1.57,0l-1.6.07c-1.08.05-2.17.07-3.26.14l-3.32.29-1.67.14L95.09,2l-3.34.46a91.05,91.05,0,0,0-14,3.41C49.41,14.49,26.06,35.2,13.24,62.25A23.51,23.51,0,0,0,12,64.32c0,.13.18,0,.33-.06q-2.25,5-4,10.27h0a.65.65,0,0,1,0,.13c-.55,1.64-1,3.29-1.53,5C6.37,80.84,6,82,5.62,83c-.26,1.41-.37,2.15-.4,2.51q-.6,2.67-1.06,5.38a.67.67,0,0,1-.06-.12c-.21-.57-.34-1.9-.94-.2.11-.91.21-1.85.34-2.8s.35-1.91.52-2.88.33-2,.57-2.89.45-1.89.67-2.8c.41-1.83,1-3.52,1.37-5,.22-.74.42-1.43.59-2l.53-1.63s-.07.21-.2.57S7.21,72,7,72.62L5.61,77.23c-.43,1.7-.87,3.39-1.2,4.67-.17.63-.27,1.17-.35,1.55L3.94,84c-.07-.46-.73,1.82-1.21,3.31-.24.75-.38,1.31-.45,1.2a2.06,2.06,0,0,1,0-.69c0-.43.15-1.08.31-2A99.73,99.73,0,0,0,0,108.23a110.33,110.33,0,0,0,2.12,22c-.11-1-.23-2-.32-2.83s0-1.32.08-1.14c1.3,6.82.8,6.13.85,7.58a19.36,19.36,0,0,0,1.56,4.36,20.93,20.93,0,0,1,1.5,2.8A84.93,84.93,0,0,0,9,151.56c.44,1.33,1,2.58,1.51,4.05l.88,2.39,1.15,2.84.27-.77a30.31,30.31,0,0,0,3.2,6.06l.77,1.21c.29.4.58.84.89,1.31.64.95,1.29,2.11,2.17,3.57.06.19-.34-.21-.85-.91s-1.19-1.67-1.8-2.52c.84,1.26,1.41,2.2,1.86,3s.81,1.36,1.15,2a25.89,25.89,0,0,0,3.21,4.68l-1.67-1.66c-.81-.85-1.6-1.73-1.6-1.73l1.06,1.52c.37.52.78,1,1.17,1.53.78,1,1.53,2,2.13,2.79,1.27,1.56,1.93,2.48.94,1.73.72.74,1.5,1.55,2.31,2.44l2.68,2.71c.92,1,1.93,1.92,3,2.9s2.07,2,3.2,3l1.66,1.46c.56.49,1.11,1,1.7,1.44l3.45,2.73,3.47,2.47c.55.4,1.13.76,1.69,1.11l1.66,1-.83.07c.59.3,1.28.69,2,1.15s1.66.91,2.57,1.45,1.89,1.12,2.91,1.66L60,209.82c1,.58,2.12,1,3.14,1.52s2,.94,3,1.31a37.12,37.12,0,0,0,4.64,1.52l.65.46,1.57.43c.94.24,2.17.64,3.44.91l3.46.77c.94.22,1.58.32,1.58.32,4.51,1.14,2.82,1.55,3.23,1.42,1.24.31,2.48.49,3.68.7s2.35.44,3.5.58l3.32.41c.54.07,1.08.15,1.6.2l1.56.12,3,.25c1,.1,1.92.09,2.84.14l2.68.13c.87.07,1.72,0,2.54.06a11.67,11.67,0,0,1,2.76-.51c.69-.06,1.47-.19,2.32-.3l2.77-.34c1-.09,2-.28,3.08-.45l3.25-.5,3.29-.65c1.1-.22,2.18-.42,3.21-.7l3.76-.86c1.25-.34,2.49-.71,3.74-1.06.62-.19,1.25-.34,1.87-.56l1.84-.63,1.85-.64.93-.32.91-.37,3.64-1.47c1.2-.54,2.39-1.11,3.59-1.66s2.36-1.17,3.53-1.79,2.35-1.21,3.47-1.91l3.42-2,3.31-2.22c1.12-.71,2.16-1.55,3.24-2.33l1.6-1.2c.53-.4,1-.84,1.55-1.26a101.29,101.29,0,0,0,11.62-11l1.33-1.49.67-.74.63-.77,2.53-3.08c.81-1.06,1.58-2.13,2.37-3.19s1.53-2.16,2.26-3.26c1.51-2.17,2.82-4.46,4.17-6.7s2.53-4.59,3.6-7,2.11-4.73,3.1-7.1c.47-1.2.88-2.41,1.32-3.61l.64-1.8c.19-.6.37-1.21.56-1.82a109.39,109.39,0,0,0,3.5-14.52c.23-1.44.47-3,.66-4.71l.06-.86a113.65,113.65,0,0,0-.41-33.84C211,91.52,211.1,91.28,211.31,91.8Zm-110-84.18-.94.07Zm105.38,92.57.39,3.71c-.54-4-.39-2-.78-2.28l.19,2c0,.5.09,1,.12,1.38s0,.62,0,.62c-.1-1.62-.3-1.87-.39-1.36.12,1,.09,2.25.12,3.44s.1,2.39.17,3.39c.19-.81.33.2.44-1.5,0,1.46,0,2.83-.06,4.16,0,.67,0,1.32-.05,2s-.1,1.3-.14,2c-.15,2.62-.49,5.31-.95,8.52.16-1.18.44-3.72.61-5.51s.06-2.85-.25-1.09c0,0-.06,1.19-.21,2.37l-.26,2.38-.45-1.21a41,41,0,0,1-.89,8.31c-.35,1.58-.69,3.18-1,4.61s-.79,2.69-1.08,3.66c-.13,0-.29.39-.46.86s-.4,1-.59,1.54c-.37,1-.66,1.72-.58.6a20.6,20.6,0,0,1-.67,2.75c-.43,1.3-1,2.83-1.44,4.08,1.4-3.32,1.21-1.93.59.46-1,1.06-1.35,3.57-2,4.93-.08.08.25-1,.35-1.43.05-.24,0-.33-.1-.08s-.39.88-1,2a21,21,0,0,0-.76,3.06,21.17,21.17,0,0,1-2.13,5.09,19.7,19.7,0,0,0-2,2.93c-.43.68-.83,1.41-1.25,2s-.78,1.12-1,1.45c1-1.75,3.53-5.55,3.4-6-1.21,1.78-2,3.15-2.74,4.25s-1.22,1.94-1.67,2.75l-.68,1.19-.76,1.22c-.56.86-1.2,1.87-2.18,3.13a37.61,37.61,0,0,0-3.38,3.6c-1.39,1.5-2.71,3-3.16,3.59,0,0,.11-.18.21-.37s.19-.37.19-.37l-.17.18c-.1.12-.26.28-.45.47l-1.41,1.4L175,186.4c-.38.39-.65.63-.65.63.45-.72,3.69-3.95,2.21-2.81l-.89.87c-.54.52-1.22,1.25-2,1.89l-3,2.65c.61-.62,2.23-1.94,2.07-2l-1.64,1.49c-1,.9-2.38,2-3.75,3.14s-2.82,2.14-3.88,3c-.53.4-1,.7-1.32.92l-.5.34c.64-.64-.34-.13-1.78.72l-1.15.68-1.24.68-2.24,1.23c-1,.74-.84.71-.26.44s1.31-.7,1.9-1a2.61,2.61,0,0,1,.74-.32l-.74.32-1.9,1c-4,2.11-9.32,5.14-10.63,4.77a38.14,38.14,0,0,0,4.59-1.9c1.87-1,.41-.57.67-.91-1.23.61-2.17,1.06-2.94,1.39-.38.17-.73.3-1,.41a7.53,7.53,0,0,1-.88.22c0,.29-2,1.21-3.91,2s-3.61,1.44-2.89,1.59c-.69,0-3.49,1-4.9,1.42,4.83-1.27.21.31,3.93-.62l2.46-1.12c-1.88.87-1.38.81-.22.51s3-.81,3.63-.93L143,207c.29-.07.29-.07.21,0a1,1,0,0,0-.32,0c-1.27.55-2.16.86-2.75,1.14a5.36,5.36,0,0,0-1.13.63c-.41.31-.33.49-1,.85.09-.18-.36-.08-1.11.07s-1.77.43-2.78.71l-1.48.41c-.48.12-.91.21-1.28.29-.72.16-1.15.24-1,.16a24.75,24.75,0,0,1-3.43.8,19.86,19.86,0,0,0-2,.42c-.28.08-.64.17-1.14.28l1.14-.28c2.22-.64-1.39-.4-.54-.67-1.85.4-4.69.83-4.72,1.1,4.79-.59,0,.5.33.67-2.46.4-5,.62-7.25.88a32,32,0,0,1-5.31,0c2.46-.16,6.57-.25,4.84-.51l-3.49.15a11.1,11.1,0,0,1,3.14-.2,11.55,11.55,0,0,0,3.34-.36h-1.42s-1.34.1-2.69.08H108.5c.06-.24,2.79-.38,3.88-.6-.7.1-.81.21-.5.32a5.38,5.38,0,0,0,.75.14l1.24.05,1.52-.09s-.07,0-.1.08l1.57-.06.82,0,.83-.11-.12-.59-.64.08-1.39.11-2,.15c-1.66-.43-.31-.44,1.14-1.2a32,32,0,0,1-6.55,0l3.35-.2,3.45-.32,1.74-.16,1.73-.25c1.15-.16,2.29-.3,3.41-.48l3.27-.63c.53-.11,1-.2,1.56-.32l1.49-.38,2.77-.74c.86-.26,1.66-.54,2.39-.8.67-.69-3.56.8-.32-.46,0,0-1.1.31-2.21.59l-2.24.48a17.24,17.24,0,0,1,3.79-1c.63-.11,1.3-.23,2.08-.41.39-.09.81-.2,1.26-.34s.92-.33,1.44-.55c.85-.43-3,.72.75-.58l-.18.21a59.71,59.71,0,0,0,6.49-2.76c.93-.47,1.81-1,2.72-1.44s1.86-.95,2.84-1.52c.29.05,0,.37-.73.86s-1.84,1.08-3.16,1.78c-2.64,1.39-6.13,2.87-8.7,4l1.07-.36,1-.32-1,.32c-1.51.54,1.44-.25-.49.42,1.24-.42,2.19-.75,3-1.08s1.54-.73,2.26-1.09c1.44-.69,3-1.53,6.65-3.27a26.55,26.55,0,0,0,2.89-.81c.8-.57,1.12-.83,1.59-1.18s1.07-.77,2.44-1.68c-1.12.49-4,2.53-3.35,1.8.84-.71,2.65-1.68,2.92-2.16-1.14.54-1.57.75-2.08,1-.25.14-.53.32-.92.56l-1.68.94c.23-.35,1.66-1.24.26-.72.93-.5,1.83-1,2.73-1.59s1.82-1,2.71-1.6l2.64-1.65c.43-.28.87-.54,1.29-.82s.84-.58,1.26-.87l2.45-1.72c.77-.61,1.53-1.21,2.27-1.82a37,37,0,0,0,4-3.76c-.44,1.07,6.7-6.07,2.84-1.89l-.4.11-2.54,2.4c-.85.81-1.65,1.63-2.37,2.37a32.21,32.21,0,0,0-2.83,2.93c3.32-2.83,5.17-4.55,7.11-6.33l3.05-3,1.8-1.95c.65-.72,1.39-1.49,2.13-2.43-2.12,3.2,3.57-4.08,2.44-2.15.71-.84,1.38-1.8,2-2.69l1-1.29.84-1.18c-.77,1-1.07,1.23-1,1.1a9.61,9.61,0,0,1,.69-1.28c.75-1.27,1.78-2.95,1.4-2.7-.85,1.19-1.66,2.47-2.25,3.49a5.15,5.15,0,0,0-.94,1.91c-1.15,1.51-1.27,1.16-1.2.74l-.85,1.08-2,2.28-1,1.21c-.34.39-.68.72-1,1-.56.6-.94,1-.94,1a15,15,0,0,0,2.07-2.53c.22-.41.11-.47,0-.5s-.51,0,1.71-2.53c1.15-1.31.28.57,3-3.27.51-.68.57-.9.39-.79l-1.42,1.59a6.71,6.71,0,0,1,1.42-1.59c.6-.74,1.22-1.54,1.89-2.44l1-1.45c.32-.54.65-1.11,1-1.72,0,0-.1,0-.26.26l.58-.85-.32.59c.16,0-.24,1.1,1.66-2,2.39-4.32.57-2.29,1-3.2l-.55.88c.51-1,.48-1.15.5-1.41a2.36,2.36,0,0,1,.14-.62c.12-.32.32-.8.64-1.59.07-.19.15-.4.29-.7-.12.28-.2.47-.29.7-.33.88.17.23,1.13-1.82,1.25-3-2.08,2.26.31-2.3a2.12,2.12,0,0,0-.25.72s.21-.25.52-1c2.62-6.74-.67.48-.29-1.41.57-1.38,1-2.3,1.25-3s.43-1.25.61-1.77c.3-.92.65-1.83,1.34-4,.07-.25.15-.53.27-.88-.1.31-.19.6-.27.88-.29,1-.29,1.18-.24,1.32s.17.25-.27,1.58c.41-1,.63-1.77.83-2.31s.33-.92.47-1.24c.25-.65.51-1.11,1-2.56-1.56,3.45,1.06-5.61-1.13.58.46-2,.59-2.87.77-3.74s.38-1.72.81-3.66a8.09,8.09,0,0,1-.18,2.76,16.66,16.66,0,0,0-.42,3.38l.85-2.56c.11-.32.21-.65.31-1s.17-.59.23-.83l.23-.82a14,14,0,0,1-.19,1.78l-.49,2.36c-.29,1.47-.44,2.44.16,1.11,1.57-5-.11,2.64,1.4-3.39-.4.17-.08-2.14.21-4.34s.39-4.31,0-3.68c-.2,1.33-.36,2.49-.52,3.29s-.35,1.21-.47,1.09a20.24,20.24,0,0,0,.56-3.16,6.61,6.61,0,0,0,0-1.19,4.63,4.63,0,0,1,.06-1c.09-.53.21-1.33.46-2.73l.13.8c.17-1,.09-1.69.21-2.81.23-.88.11,1.21.46-.8-.15-1.23.09-3.67-.25-4,.37-2.63.14,3.31.38,3.41.31-2.76-.11-1.53.14-4,.09-.23.19.62.29.94s.1.2.15-.11c0-.15.05-.38.08-.73a13.32,13.32,0,0,0,0-1.38c0,.55,0,1,0,1.48l0,1.14c0,.66,0,1.12,0,1.46a1.78,1.78,0,0,0,.3,1,1.8,1.8,0,0,1,.25,1.06,36,36,0,0,1-.34,4.22c1-3.45.83-7.24,1-11.94l-.15,2.08a10.87,10.87,0,0,1,.06-1.46c-.14-.68-.24.4-.35,1.57s-.33,2.41-.47,2.1c0,0,.09-.56.19-1.11,0-.28.09-.56.12-.77l.05-.35c-.18,0-.11-4.15-.3-2.94l0,1.79c0,.45,0,.9,0,1.24s0,.56,0,.56c0-1.26,0-2.48,0-3.67l0-1.78c0-.58-.08-1.16-.13-1.74-.09-1.15-.18-2.28-.27-3.4s-.29-2.22-.44-3.32l-.22-1.65-.31-1.64c-.19-1.09-.4-2.18-.6-3.29s-.5-2.2-.76-3.32c-.13-.56-.23-1.14-.39-1.7s-.31-1.14-.46-1.71c-.21-.91-.39-1.86-.56-2.81s-.37-1.89-.5-2.78l.67,2.47a14.09,14.09,0,0,1-.62-3.74,8.89,8.89,0,0,0-.11-2.57A18.53,18.53,0,0,0,197,75.51c-.18-.33-.37-.72-.68-1.43l-.56-1.35c-.1-.28-.22-.58-.36-.92s-.3-.7-.48-1.11c-.7-1.18.07.7.48,1.76a17.85,17.85,0,0,1-1.49-4,9.24,9.24,0,0,0-.46-1.45,28.06,28.06,0,0,0-1.36-2.6c-.73-1.37-.77-1.28-.8-1.22s0,.09-.85-1.34a10.78,10.78,0,0,1,1.18,1.7c.53.85,1,1.56.82.89-1-1.6-1.7-3.1-2.55-4.71-.23-.4-.45-.81-.69-1.19a11.85,11.85,0,0,1,.69,1.19c1.87,3.07,3.72,6,2.73,3.5a16.39,16.39,0,0,0-2.58-4,14.28,14.28,0,0,1-2.19-2.72c2,3.57-.32.86-.3,1.49l.36.55c.21.33.51.76.77,1.22l1.07,1.82a41.28,41.28,0,0,0-2.82-4.26c-.29-.41-.59-.82-1-1.47s-1.12-1.5-2.07-2.82c3.18,4-1.32-2.69-1.79-3.78a35.63,35.63,0,0,0-4-4.46c-.78-.87-1-.85-.7-.44a15,15,0,0,0,1.57,2.12,124.42,124.42,0,0,0-8.89-9.6l.72.33-2.84-2.45c-.72-.61-1.48-1.16-2-1.6l-.92-.72c.68.47.27,0,.73.3l-1.5-1.26-1.62-1.27c-1.09-.85-2.16-1.72-3.23-2.39l-.09.36a21.81,21.81,0,0,1,2.43,1.6,5.27,5.27,0,0,1,.77.67,6.15,6.15,0,0,0,.6.62c.34.3.89.74,1.86,1.55-.39-.29-.76-.58-1.14-.85l-1.09-.72c-.69-.46-1.29-.83-1.71-1.07-.85-.48-1-.4.16.73l-1.18-.85c-.41-.29-.85-.55-1.29-.84L156,27.37a33,33,0,0,0-4.36-2.23c-2.52-1-1-.11.45.89s2.78,2,.16.75c0-.09.34-.05.29-.21s-.14-.21-.44-.43a10,10,0,0,0-1.52-.94c-1-.49-2.28-1.13-3.51-1.67a14.12,14.12,0,0,1-2.81-1.46,17.84,17.84,0,0,1,1.8.86c.65.35,1.4.69,2.24,1.12.07-.05-.21-.25-.64-.52s-1-.54-1.58-.81c-1.09-.55-2-1-1-.74l1.9,1c.48.24,1,.5,1.29.71l.58.34c.56.15.68,0,.38-.34A7.84,7.84,0,0,0,147,22.15c1.06.52,1.66.82,2.05,1a1.65,1.65,0,0,0,.68.13c-.54-.3-1-.55-1.47-.76s-.86-.36-1.23-.49a15.41,15.41,0,0,0-1.91-.57c-1.12-.6-.22-.38-1.86-1.06.88.6-1.92-.63-3.45-.95-2.43-1.38,2-.21-2.17-2a15.3,15.3,0,0,0-1.85-.49c-.53-.11-.83-.06-.36.19L132.61,16c-.82-.33-1.57-.66-2.41-.92s-1.75-.56-2.87-.88l-.88-.25-1-.22-2.31-.48c-1.77-.32-.09.23-1,.19l2,.32c.42.06.94.15,1.65.28l-1.65-.28a6,6,0,0,0-1.92,0,26.29,26.29,0,0,1-4.24-.49c4.87.48,3.69-.2,3.91-.48a25.28,25.28,0,0,1,3.78.39c.79.1,1.56.26,2.23.4s1.22.24,1.55.28c-2.47-1-4.59-.81-7.77-1.57a40,40,0,0,1-4.66,0c-1.7,0-2.71.14-.61.52-3.35,0-3.89-.55-5.86-.68l-2.54.05c-.9,0-1.83.1-2.73.15l-2.57.16-2.07.24c-.91.21-2.18.36-3,.56s-1.31.4-.62.53c1-.14,1.92-.18,2.74-.27s1.6-.19,2.39-.31c2.18.06,1.46.23.46.35s-2.28.38-1.28.44c-1.42-.09-1.32-.17-1-.4-.7,0-1.49,0-2.33.1s-1.72.23-2.61.37-1.78.26-2.62.46l-2.37.53,1.83-.29c.45-.07.91-.16,1.25-.19l.58-.06c.65.17-2,.65.14.58a18.29,18.29,0,0,0-2.43.3c-.84.14-1.72.31-2.61.47s-1.77.43-2.65.62-1.77.37-2.61.55c.28.09-.71.49-2,.95l-2,.7c-.62.26-1.19.51-1.58.69l-1.67.33c-.22.14-.31.24-.51.37a11.66,11.66,0,0,1-1.18.61c-.89.14-.63-.06.09-.41S77,19.48,78,19l1.39-.4a8.76,8.76,0,0,1,.95-.26l.44-.11c2.42-1,5-2.17,0-1-1.14.39-2.33,1-4.2,1.56a9.33,9.33,0,0,1-1.35-.07l-3.66,1.54a16.61,16.61,0,0,0-3.54,1c-.41.16-.93.37-1.52.64l-1.94,1c-.7.37-1.46.77-2.22,1.2L60,25.54a49.86,49.86,0,0,0-4.14,2.91,19.91,19.91,0,0,0-2.56,2.24c-.87.43,0-.27.92-1s2.06-1.52,1.59-1.4a25.27,25.27,0,0,0-3.68,2.66c-1.24,1-2.38,2.06-3.59,2.93l-.54.91a18.3,18.3,0,0,0,1.69-1.42c1-.53-1.57,1.65-2.62,2.67l-.41.44A3.22,3.22,0,0,1,47.1,36c.74-.83.2-.41-.67.31s-2.45,2-2.86,2.3a63.78,63.78,0,0,0-6.72,7.32c-2.05,2.51-3.65,4.91-4.72,6.15-.38.81-.86,1.71-1.4,2.65l-.84,1.46L29,57.76c-.56,1.06-1.21,2.11-1.72,3.22s-1.05,2.18-1.51,3.22L26,64l-.19.33c-.28.72-.54,1.41-.76,2.07l.83-.94c.42-.91.9-1.76,1.3-2.57s.76-1.55,1.05-2.18c.6-1.25.91-2.06.64-2.07l1.5-2.14,1.59-2.07a34.12,34.12,0,0,0-2.73,4.42,11.48,11.48,0,0,0-.85,2,14.12,14.12,0,0,1-.74,2c-.21.47-.48,1-.85,1.76S26,66.29,25.41,67.4c-1.45,2.44-.39-.73-.9-.28.9-1.6.54-1.46,1.25-2.8l0-.12c-.34.54-.76,1.26-1.23,2.07s-1,1.69-1.4,2.62a27.1,27.1,0,0,0-1.92,4.84c.29.15-.22,1.85-.68,3.38s-.74,3-.31,2.42c.75-2.19,1.24-3.62,1.59-4.92.18-.65.32-1.27.52-1.91s.43-1.29.72-2l0-.15-1.32,2.19c.42-1.16,1.57-3.86,1.62-3.31l-.3,1.12.05-.07-.09.22c-.69,2.72-.16,1.71.44,1.55a30.89,30.89,0,0,1,1.59-3.52c-.3.81-.63,1.7-1,2.57s-.85,1.74-1.19,2.6A14.14,14.14,0,0,0,21.56,78c1.74-4.63,1.78-4.37,2.86-5.83-.32.69-.51,1.14-.63,1.47a4.08,4.08,0,0,0-.16.69,4.88,4.88,0,0,1-.31,1.42c-1.16,2.72-1.12,2.14-1.14,1.78s-.12-.51-1.32,3.21c.42-2.35.15-1,.44-3.15a23,23,0,0,0-1,3c-.14.54-.33,1.1-.49,1.74s-.36,1.35-.61,2.15c-.94,2,.47-3.19-.26-1.05a14.45,14.45,0,0,1-.41,1.54c-.11.37-.23.77-.35,1.19S18,87,17.87,87.4c-.4,1.72-.71,3.27-.39,3.11L18.43,87c-.46,4.52,1.19-2.07.38,3.64-.57,2.43-.56,2.11-.48,1.14s.42-2.56.36-2.69c-.24.84-.47,1.53-.67,2.19s-.36,1.28-.55,2-.37,1.44-.58,2.38-.33,2.07-.51,3.48c.56-2.79.41-.61.27,1.35s-.08,3.72.35.12a28.85,28.85,0,0,1,0,4.25c0,.41,0,1.24,0,2.88l0,.08a16.84,16.84,0,0,0,.2,2.84c.06-.14.11-.11.13.51a3.1,3.1,0,0,1-.13-.51c-.07.17-.16.63-.25.63s-.08-.12-.12-.44c0-.16,0-.37,0-.65s0-.61,0-1l.21-1.35c0-1,0-2,0-3s-.45,1.15-.62.21c-.05,1.78-.11,3.85-.16,5.64a19.24,19.24,0,0,1-.26,4c.31,2.42.32-.13.64,1.3,0-.34,0-.67-.06-1s0-.59,0-.84a4.93,4.93,0,0,1,.1-1.13,17,17,0,0,0,.51,4.46c.13.62.26,1.31.39,2.24s.33,2.1.5,3.71l.09,1c0,.28.06.53.09.73a8.06,8.06,0,0,1,.07.85c0,.33-.07.22-.18,0-.2-.42-.52-1.29-.51,0-.12,1,.45,2,.72,3.61L18.13,131c.09.24.18.48.28.73s.23.64.35.93c.06.12.14.25.21.4s.19.42.27.6v0l0-.44c.22.78.29.92.2.79s-.09-.17-.16-.31c0,.2.05.39.05.39s-.13-.28-.29-.72c-.07-.19-.16-.42-.24-.67-.27-.42-.44-.37-.11,1.51a1.91,1.91,0,0,1-.15-.21c0,.13.06.26.1.4.17.67.35,1.35.35,1.35a7.63,7.63,0,0,1-.54-1.43c-.09-.28-.17-.61-.25-.94a10,10,0,0,0-.73-1.32c-.15-.2-.25-.16-.24.34a16,16,0,0,0,.49,3.09c1,2.46.33,1.43.87,3.55a27.81,27.81,0,0,0,2.16,4.37l-.14-.37c-.07-.22-.16-.52-.26-.81L19.93,141c.31.55.63,1.52,1.1,2.65s1,2.47,1.46,3.82c1.25,3.26.41,1.73-.35.33a10.6,10.6,0,0,0-.75-1.39s0,.15.12.56a21.4,21.4,0,0,0,.77,2l1.31,1.7c.25,1.9,2.25,6.17,4.89,10.24-.64-.69-.91-.8-.42.3.1-.23,1,1.08,1.75,2.27s1.61,2.19,1.38,1.5a19,19,0,0,1-2.13-3.2,20.11,20.11,0,0,0,1.38,2.11c.32.37.6.64,1.23,1.43,1.13,2,.7,1.5.39,1.21s-.28-.24-.16,0,.18.37.39.74c.1.19.23.41.38.67l.57.87,1.92,2.56c.65.82,1.33,1.6,2,2.36,1.26,1.54,2.57,2.82,3.65,3.92l-1.62-2.18,1.47,1.33,1,.91c.28.25.47.4.47.4.25.25-.41-.13-.64-.18s-.13,0,.11.32a18.48,18.48,0,0,0,1.72,1.55c2,1.69.08-.69,1.86.72-1-1.06-1.91-2-2.85-2.83s-1.8-1.83-2.75-2.85l.17.63-.82-1-.76-1a7.88,7.88,0,0,1,1.42,1.29c.66.67,1.44,1.52,2.21,2.35.38.43.78.82,1.16,1.18s.73.69,1,1c.63.55,1.09.87,1.24.78-.64.28,6,5.57,3.29,3.74,3.78,3,.57-.15,3.53,2l.25.25c.15.14.35.34.56.52l.84.73c3.07,2-1.68-1.73,1.1.12-.27,0,.29.59,1.09,1.32s1.92,1.52,2.63,2.1L57.08,190l-1-.56c-.27-.15-.44-.27-.44-.27-1.12-.8,2.24,1.19-.56-.83a14.29,14.29,0,0,0-1.49-1.06l-2-1.28c-1.25-.78-2.15-1.18-1.2-.13,1.88,1.68,3,1.93,5,3.32-.56.6,4.35,2.9,3.25,3.19,4.47,2.57,3.51,1.36,4.64,1.64.17.19-.11.19-.1.32s.33.38,1.7,1L65,195a.06.06,0,0,1,0-.08l0,.08a6.82,6.82,0,0,0,2,1.54c1.31.78,3,1.63,4.13,2.3,1.82.37,1.57-.64,4.76.72a12.08,12.08,0,0,0-2.18-.92l-.66-.18c-.13-.07.19,0,.66.18a16.58,16.58,0,0,1,4.66,1.48c-2.43-.41-2.06,0-4.76-.58l1.71.53c.67.2,1.43.36,2.24.57l2.53.64,2.66.59a12.89,12.89,0,0,0-2.54-.29c-.73,0-.89.23,1,.93,3.22.73,4.78.86,8.73,1.53a9.51,9.51,0,0,1-1.51,0c-.63-.06-1.32-.12-1.82-.14-1,0-1.27.07,1.16.77-1-.15-2-.32-3.19-.52s-2.38-.56-3.72-.94c1.34.37,2.62.88,3.8,1.22s2.23.66,3.07.84c.61,0-2.46-.75-.14-.32l.07.16.82.21.86.15a6.68,6.68,0,0,0,1.16.11.46.46,0,0,1-.22-.17c.3.1.34.15.22.17a15.36,15.36,0,0,0,2.54.69c1.14.19,2.4.37,3.37.59,1.2.07,4.07,0,2-.28l-.63-.07.63.07a21.42,21.42,0,0,0,4.49.18c3.73-.47-1.55-.87-.27-1.25-.18-.11,0-.18,1.34-.19a8.45,8.45,0,0,0-1.34.19c.35.2,2.12.49,1.59.68l3.14-.36c1.63,0,1.08.14.32.26s-1.69.2-.93.32c.68.4.06.91-1.3,1.45a25.29,25.29,0,0,1-2.52.81c-1,.27-2,.45-3.16.66a60.11,60.11,0,0,1-6.36.76c-.9.09-1.65.08-2.18.1h-.84c-2.52-.37-5-1-7.61-1.55l-3.83-1.07c-.65-.17-1.29-.39-1.92-.61l-1.92-.64A95.93,95.93,0,0,1,60,199.51,98.21,98.21,0,0,1,33.26,177.3,102,102,0,0,1,23,162.75a100,100,0,0,1-7.51-16,105.58,105.58,0,0,1-4.61-16.65,103.74,103.74,0,0,1-1.75-16.48l0-2.11c0-.7,0-1.4,0-2.11,0-1.41.07-2.82.1-4.23.18-2.81.34-5.64.72-8.45A108.08,108.08,0,0,1,13.24,80,98.47,98.47,0,0,1,28,49.71c1.07-1.44.17.06.16.2A29.94,29.94,0,0,1,30,47.28c.59-.8,1.15-1.55,1.74-2.28l1.84-2.19,1-1.2,1.07-1.26-.62.94c.88-1.08,1.88-2.3,3-3.53s2.33-2.47,3.59-3.67l1.92-1.75c.63-.57,1.25-1.16,1.9-1.66,1.29-1,2.48-2.05,3.6-2.87.55-.33,1.23-.74,2-1.22s1.56-1,2.44-1.56,1.74-1.1,2.59-1.68,1.69-1.11,2.42-1.67l-.91.4a3.11,3.11,0,0,1-.77.33l.77-.33c.69-.37,1.72-1,2.89-1.75l3.8-2.2c2.57-1.35,4.88-2.38,5.06-2,6.85-2.72,1.8-1.79,9-3.91a112.41,112.41,0,0,1,11-3l2.65-.53c.87-.19,1.77-.28,2.66-.42L97.22,8c.91-.09,1.83-.16,2.77-.23a9.86,9.86,0,0,0-1.37.17c3.33.07,9.72-.78,14.81-.38a25,25,0,0,0-3,.08h2.17l2.84.12a57.87,57.87,0,0,1,6.3.6c-1.57-.16-2.85-.24-1.24.1a21.84,21.84,0,0,1,2.6.2c1,.15,2.28.36,3.78.62l.59.29.58.31,3.94.82c1.43.35,3,.76,4.56,1.17s3.18,1,4.78,1.5S144.49,14.48,146,15c1,.56.72.46.27.25s-1.09-.42-.82-.18a55.38,55.38,0,0,1,8.81,4c.2.55-5.06-2.48-4.21-1.55a18.18,18.18,0,0,1,3.37,1.7c.34.23.68.46,1.2.77s1.17.75,2.17,1.33c.42,0,.31-.17-1.46-1.14.71.29,1.68.73,3,1.39.65.32,1.35.75,2.15,1.23s1.68,1,2.66,1.68a11.75,11.75,0,0,0,1.26,1.25c.36.32.8.68,1.34,1.1s1.18.86,1.89,1.42c1.4,1-.71-.89-.82-1.07a121.69,121.69,0,0,1,11,9.67,101.18,101.18,0,0,1,9.48,11c-.71-.4,4.53,6.42,2.07,4.13.66.83,1,1.38,1.41,1.78s.66.7,1,1.08A16.37,16.37,0,0,1,193,56.48c.52.82,1.19,2,2.11,3.63,1.34,3.15,1.57,4.69-.27,1.59,1.31,2.9,3.5,7.44,4.71,11,.34.53.57.56.89.93a4,4,0,0,1,.57.92,19.56,19.56,0,0,1,.75,2.13s-.08-.29-.18-.73-.25-1-.42-1.6c-.34-1.15-.69-2.3-.69-2.3l.89,2.43.81,2.51c.27.84.56,1.68.81,2.53l.69,2.56c.22.85.47,1.69.66,2.53l.51,2.49c.16.82.33,1.62.46,2.4s.21,1.56.3,2.31c.85,4.4.38.77.93,3,0,0,.19,1.62.37,3.24.09.81.19,1.62.22,2.23s.06,1,.06,1C207.07,100.34,206.36,96.1,206.71,100.19Zm3.64-11.47c.09.38.14.62.14.62s0,.26,0,.4C210.47,89.4,210.41,89.06,210.35,88.72Z"/><path class="cls-2" d="M212.74,103.65c-.24-.84-.49-1.68-.49-1.68l.1,1.28c0,.38.07.83.1,1.31s0,1,.05,1.5l.12,4.1c.09,1.66.2,1.4.32.26s.18-3.19.25-5.08C213.19,105.34,213,104.49,212.74,103.65Z"/><path class="cls-2" d="M15.71,166.94A35.06,35.06,0,0,0,18,170.85c-.8-1.48-1.78-3.2-1.51-3C15.89,167.05,15.58,166.58,15.71,166.94Z"/><path class="cls-2" d="M16.44,167.81l.7,1-.62-.93C16.45,167.77,16.47,167.84,16.44,167.81Z"/><path class="cls-2" d="M115.47.49l2.65.16c1,.09,2.08.25,3.38.44L119.94.37,118.47.23,115.22.09C114,.05,112.86,0,112,0L110.5,0c1,.13,1.79.19,2.59.26S114.66.44,115.47.49Z"/><path class="cls-2" d="M19.3,50.32c.26-.43.59-1.07,1.07-1.77L22,46.09l.9-1.38,1-1.38,2-2.72,1.82-2.29,1.29-1.62a4.32,4.32,0,0,1,.37-.44l.13-.16-.14.16c-.1.11-.23.27-.4.48l-1.39,1.72c-.56.72-1.26,1.53-1.93,2.45L23.46,43.8c-.74,1-1.37,2-2,3s-1.24,1.84-1.71,2.62C18.81,51,18.18,52,18.18,52l.72-1S19.05,50.75,19.3,50.32Z"/><path class="cls-2" d="M15.08,167.52c-.66-1.13-1.31-2.28-1.93-3.21l2.22,3.74c1.2,1.81,2.39,3.63,2.39,3.63l-.6-1.12A29,29,0,0,1,15.08,167.52Z"/><path class="cls-2" d="M84.18,220.19c-5-1-.78.36-2.28.32C85.28,220.39,88.24,222,84.18,220.19Z"/><path class="cls-2" d="M96.23,222.06c.38.07.71.1,1,.13a10.82,10.82,0,0,0,1.44.05c.8,0,1.38-.15,2.47-.16-2.93-.27-4.57-.19-6.18-.31C95.44,221.89,95.86,222,96.23,222.06Z"/><path class="cls-3" d="M113.17,136.74l-.07-.09a.33.33,0,0,0-.28-.15h-.07a29.34,29.34,0,0,0-7.75-1.32.34.34,0,0,0-.35.33c-.16,1.43-.27,2.86-.38,4.29-.08,1-.55,2.5.18,3.34.59.68,2.66.55,3.47.58a17.89,17.89,0,0,0,4.62-.51.36.36,0,0,0,.29-.35c0-.56-.14-5.09,0-5.71C113.1,137.17,113.33,137,113.17,136.74Zm-8.3,5.42c0-2.1.29-4.21.45-6.3,2.38.12,4.69.54,7,.89-.28.38-.2,1.07-.24,1.46a33.68,33.68,0,0,0-.07,4.38,19.21,19.21,0,0,1-3.3.41C108,143,104.86,143.26,104.87,142.16Z"/><path class="cls-3" d="M115.89,136.66c-1.1,0-2.21,0-3.31,0-.23,0-.23.3,0,.33,1,.1,2,.13,3,.18-.38,2.91-.59,5.85-.7,8.79l-5.66-.33-3-.16c-1.2-.07-1.52-2-1.59-2.84,0-.43-.74-.43-.71,0a5.6,5.6,0,0,0,.94,2.76c.43.66,1,.72,1.79.76l8.52.42a.31.31,0,0,0,.32-.3c.11-3.12.36-6.24.67-9.35C116.2,136.78,116,136.66,115.89,136.66Z"/><path class="cls-3" d="M112.17,140.7c-1.15.88-2.39,1.71-3.47,2.67-.16.14,0,.41.24.29.45-.29.87-.6,1.3-.92l-.37.39c-.19.2.1.46.32.29a14.88,14.88,0,0,0,2-1.65c.08-.08,0-.18-.12-.12a2.75,2.75,0,0,1-.4.26l.86-.91C112.69,140.79,112.4,140.53,112.17,140.7Z"/><path class="cls-3" d="M111.4,139.44l-1.93,1.49a21,21,0,0,0-2.13,1.71.23.23,0,0,0,.28.35,37.92,37.92,0,0,0,4.17-3.18C112.07,139.59,111.67,139.23,111.4,139.44Z"/><path class="cls-3" d="M111.4,138.35c-1.83,1.49-3.89,2.78-5.67,4.31-.19.17.06.47.28.34a40.54,40.54,0,0,0,5.77-4.29C112.05,138.49,111.66,138.14,111.4,138.35Z"/><path class="cls-3" d="M110.93,137.51l-3,2.36a16.3,16.3,0,0,0-3,2.48c-.11.15.1.3.25.23a14.55,14.55,0,0,0,2.84-2l3.38-2.63C111.69,137.68,111.24,137.27,110.93,137.51Z"/><path class="cls-3" d="M111.24,136c-1.22,1-2.42,1.94-3.62,2.93a40.64,40.64,0,0,0-3.54,3c-.2.21.07.61.35.42a36.25,36.25,0,0,0,3.34-2.71c1.3-1.08,2.58-2.17,3.85-3.29C111.88,136.15,111.5,135.82,111.24,136Z"/><path class="cls-3" d="M109.54,136.07h0c-.55.36-1.09.75-1.61,1.15.2-.29.39-.59.57-.89s-.09-.48-.36-.43a3.48,3.48,0,0,0-.88.27c.13-.25-.23-.45-.46-.36a7.59,7.59,0,0,0-2.25,1.37c-.29.27.14.66.44.42a9.66,9.66,0,0,1,.85-.62l-1.2,1.51c-.24.3.32.59.56.29a6.24,6.24,0,0,1,2.32-2.07,20.17,20.17,0,0,1-2.09,2.71c-.37.36-.74.73-1.1,1.11s.16.7.46.42a52.94,52.94,0,0,1,5.06-4.5C110.08,136.26,109.77,136,109.54,136.07Z"/><g class="cls-4"><g class="cls-5"><g class="cls-6"><image width="512" height="512" transform="translate(245.09 57.28) scale(0.4 0.39)" xlink:href="../../../../../../Downloads/guard3.png"/></g></g><path class="cls-3" d="M144.58,123.31c.93-.56,2.6-.37,5.94,0A38,38,0,0,1,164,127.77c12.46,7.46,10.73,38.41,3.24,39.68C158.16,169,137.6,127.52,144.58,123.31Z"/><rect class="cls-3" x="123.88" y="149.76" width="43.45" height="17.73"/><path class="cls-3" d="M74.93,123.31c-.92-.56-2.59-.37-5.93,0a38,38,0,0,0-13.48,4.46c-12.46,7.46-10.73,38.41-3.24,39.68C61.35,169,81.91,127.52,74.93,123.31Z"/><rect class="cls-3" x="52.31" y="149.76" width="43.45" height="17.73"/></g><path class="cls-7" d="M131.63,48.41A154.7,154.7,0,0,0,87.06,37.24a.76.76,0,0,0-.7.37,136.55,136.55,0,0,0-9.54,29.52.78.78,0,0,0,.8.94q7.57-.18,15.15-.6v1.29c0,.46.78.46.79,0s0-.9,0-1.34a.73.73,0,0,0,0-1.45c0-1.8.07-3.61.11-5.41,0-1.37.07-2.73.1-4.1,0-.49,0-1,.05-1.48.1-2.27,2.34-2.16,3.86-2.27A63.79,63.79,0,0,1,115.39,54a121.63,121.63,0,0,1-1.3,14.51c-.15,1-.32,2-.51,3-.32,1.64-2.37,2.16-3.79,2.79l-7.85,3.49c-1.77.78-3.38,1.48-4.34,3.11s-.69,3.7-.83,5.32l-1.31,15.65a.75.75,0,0,0,.6.72l13.61,2.11c1.23.19,3.21.89,4.42.26s.89-2.35,1-3.26l.36-5.53c.14-2.07-.28-5.26,1.28-6.94,1.3-1.41,4.37-2.15,6.16-2.91l6.39-2.75a.71.71,0,0,0,.41-.63Q130.84,66,132,49A.71.71,0,0,0,131.63,48.41Zm-1.48,4.76q-.69,9.49-1.36,19c-.21,3-.43,6-.65,9.08C128,83,126,83.31,124.44,84L119.64,86c-1.82.78-4.37,1.55-5.09,3.47-1,2.55-.7,5.55-.88,8.21-.11,1.58-.21,3.16-.32,4.74-.12,1.9-4.93.52-6,.36l-10.23-1.59L98.34,87c.24-2.81-.13-5.77,3-7.33,2.5-1.26,5.16-2.3,7.73-3.43,1.87-.83,4.14-1.49,5.49-3,1.14-1.27,1-3.64,1.27-5.17A118,118,0,0,0,117,53.45a.74.74,0,0,0-.59-.7,68.66,68.66,0,0,0-10.7-1.46c-3.44-.19-7.64-.43-10.93.65-2.43.79-2.07,3.5-2.06,5.34,0,2.9,0,5.81,0,8.72-4.71.23-9.42.42-14.14.54A137.7,137.7,0,0,1,83.14,50c.94-2.75,2-5.47,3.11-8.16.31-.74.63-1.47,1-2.2.53-1.21,1.33-.76,2.4-.64,1.91.2,3.81.47,5.7.75a151.46,151.46,0,0,1,19.06,4.15c3.25.92,6.46,2,9.63,3.11,1.79.64,3.55,1.33,5.3,2S130.25,51.69,130.15,53.17Z"/><path class="cls-7" d="M137.34,46.14c-8.67-5-17.32-9.92-26-14.84-3.56-2-7.8.65-11.27,1.85-4.46,1.54-8.92,3.08-13.33,4.73-.43.16-.13.81.3.67C91,37.34,94.82,36,98.7,34.72l5.81-2,2.49-.85c1.75-.59,3.09,0,4.5.81,7.37,4.25,14.77,8.45,22.16,12.67L136,46.68c.84.48.33,2.53.3,3.24-.09,1.92-.19,3.85-.29,5.77q-.32,5.76-.7,11.52-.78,11.7-1.87,23.39l-7.15,1.79c-1.41.36-4.5.57-5.39,1.86s-.94,3.41-1.13,5.06a62.88,62.88,0,0,0-.41,7.64l-12,.12c-1.33,0-5.45.68-6.38-.33l-4.26-4.6a.63.63,0,0,0-.94.85l4.26,4.6c1.17,1.25,2.9.72,4.61.7l15.35-.2a.62.62,0,0,0,.63-.58,59.77,59.77,0,0,1,1-11.86c.32-1.61,5.31-2.22,6.72-2.57l5.9-1.49a.6.6,0,0,0,.47-.55q2.05-22.17,3-44.41A.55.55,0,0,0,137.34,46.14Z"/><path class="cls-7" d="M116,56.5c-3.92-1.78-9.06-2.1-13.39-2.29a.63.63,0,0,0-.61.43A64.49,64.49,0,0,0,100,66c-2.66.08-5.3,0-8-.14a.37.37,0,0,0-.11.73,40.08,40.08,0,0,0,8.62.5.6.6,0,0,0,.61-.55,66.59,66.59,0,0,1,2-11.1,60.16,60.16,0,0,1,6,.61c2.2.34,4.33,1,6.53,1.32C116.15,57.39,116.55,56.75,116,56.5Z"/><path class="cls-7" d="M137.54,46.59a32.66,32.66,0,0,0-3.8.73,8.62,8.62,0,0,0-3.29,1.07c-.37.26,0,.7.34.74a9.1,9.1,0,0,0,3.28-.66,29.1,29.1,0,0,0,3.67-1.19A.36.36,0,0,0,137.54,46.59Z"/><path class="cls-7" d="M134.62,91.47c-.91-1.31-1.92-2.55-2.85-3.84s-1.72-2.9-3-3.83c-.22-.15-.49,0-.45.23.25,1.49,1.5,2.91,2.38,4.17a49.08,49.08,0,0,0,3,4C134.07,92.66,135,92,134.62,91.47Z"/><path class="cls-7" d="M122.86,94.18a17.92,17.92,0,0,0-2.82-3c-1-.85-2.23-2.24-3.56-2.51-.4-.08-.71.28-.52.61.56,1,2,1.68,2.91,2.42,1.16,1,2.23,2,3.39,2.92C122.57,94.84,123.1,94.52,122.86,94.18Z"/><path class="cls-7" d="M116.94,105.19c-2.07,0-3.61-2.72-5.72-1.19-.28.21.08.57.37.44,1.62-.7,2.66,1.57,4.09,1.85a9.14,9.14,0,0,0,1.81.13,3,3,0,0,1,1.93.84.42.42,0,0,0,.54-.14C121,105.51,118,105.16,116.94,105.19Z"/><path class="cls-7" d="M103.06,54.59c-2.23-1.46-7.19-2.81-9.75-1.46a.41.41,0,0,0,.11.78,19.9,19.9,0,0,0,4,.19,36.57,36.57,0,0,1,5.41,1.12A.35.35,0,0,0,103.06,54.59Z"/><path class="cls-7" d="M114,100.44a36.23,36.23,0,0,1-2.81,2.45.31.31,0,0,0-.46,0,2.69,2.69,0,0,0-.58.8.5.5,0,0,0,.71.64,8.72,8.72,0,0,0,3.55-3.57A.25.25,0,0,0,114,100.44Z"/><path class="cls-7" d="M112.71,98.27a37.26,37.26,0,0,1-5.07,4.81.34.34,0,0,0-.37,0,3.89,3.89,0,0,0-.93,1c-.27.4.32,1,.77.69a32.06,32.06,0,0,0,6.42-6C113.89,98.42,113.07,97.85,112.71,98.27Z"/><path class="cls-7" d="M114.5,93.75c-3,2.74-6.12,5.42-9.35,8a.34.34,0,0,0-.28,0c-.59.29-.62.33-.74.94a.64.64,0,0,0,1.07.56,81.48,81.48,0,0,0,9.85-9C115.36,93.91,114.86,93.43,114.5,93.75Z"/><path class="cls-7" d="M113.9,91c-2.45,2-4.58,4.33-6.92,6.43s-4.78,4.15-7.29,6.1l0,0c-.54.55.24,1.39.94.85,4.9-3.79,10.3-8.08,13.7-13.09C114.52,91,114.13,90.79,113.9,91Z"/><path class="cls-7" d="M115.65,87.8c-2.81,1.86-5.16,4.47-7.62,6.7-2.68,2.44-5.55,4.77-8.09,7.32-.56.56.28,1.3.9.82,2.89-2.22,5.49-4.83,8.14-7.28,2.41-2.24,5.21-4.55,7.06-7.22C116.18,87.94,115.88,87.65,115.65,87.8Z"/><path class="cls-7" d="M128.68,77.63c-2.13,2.37-4.28,4.72-6.37,7.11a.29.29,0,0,0-.43-.25,1.36,1.36,0,0,0-.64,1.81.64.64,0,0,0,1,.25c2.43-2.78,4.76-5.62,7.12-8.44C129.66,77.75,129,77.29,128.68,77.63Z"/><path class="cls-7" d="M128.5,75.08c-.42,1.31-2.28,2.65-3.26,3.66-1.16,1.19-2.31,2.38-3.48,3.57s-2.36,2.34-3.56,3.5a21.08,21.08,0,0,0-3.54,3.66c-.19.31.19.67.54.49a17.59,17.59,0,0,0,3.89-3.35c1.39-1.35,2.74-2.75,4.08-4.15s2.62-2.86,3.88-4.32c.77-.9,1.9-1.82,2-3C129,74.86,128.58,74.82,128.5,75.08Z"/><path class="cls-7" d="M128,73.4a313.63,313.63,0,0,0-30.33,28.82c-.58.53.36,1.36.89.81,9.57-10.09,19.6-19.73,29.94-29.18C128.83,73.56,128.35,73.13,128,73.4Z"/><path class="cls-7" d="M128.59,70.84C122.8,75,117.72,80.06,112.77,85A151.89,151.89,0,0,0,99,99.94c-.38.5.5,1.1.94.65,4.69-4.86,9-10,13.8-14.76,5-5,10.39-9.59,15.24-14.64C129.2,71,128.86,70.65,128.59,70.84Z"/><path class="cls-7" d="M129.08,68.24a119.59,119.59,0,0,0-15.74,13.92c-5.17,5.32-10.28,10.76-15.17,16.29a.65.65,0,0,0,1,.88c5-5.12,9.75-10.48,14.67-15.68s10.36-10.11,15.81-14.93C130,68.4,129.45,68,129.08,68.24Z"/><path class="cls-7" d="M129.59,65.25A137.5,137.5,0,0,0,113,78.7c-2.63,2.43-5.14,5-7.61,7.52s-5.59,5.08-7.24,8c-.22.38.27,1,.72.65,2.69-1.85,4.76-4.81,7-7.13,2.45-2.57,5-5.11,7.54-7.58,5.27-5.06,11.23-9.46,16.58-14.43C130.26,65.49,129.91,65,129.59,65.25Z"/><path class="cls-7" d="M128.85,62.87c-5.93,3.84-11.24,8.67-16.4,13.3-2.79,2.51-5.5,5.1-8.15,7.72-2.36,2.33-5.58,4.86-7.13,7.7a.46.46,0,0,0,.65.59c2.65-1.75,4.72-4.61,6.92-6.81q4-4,8.12-7.75c5.32-4.88,11.13-9.32,16.45-14.2C129.6,63.15,129.21,62.64,128.85,62.87Z"/><path class="cls-7" d="M112.57,73.09a123.78,123.78,0,0,0-12.34,11.57c.94-1.63,1.89-3.25,2.83-4.89.33-.56-.51-1.21-1-.7q-2.79,2.82-5.6,5.62a.47.47,0,0,0-.18.12,8,8,0,0,0-.69.75h0l-.11.13c-.46.55.56,1.23,1.06.73l2.94-3-2.83,4.85c-.33.58.52,1.22,1,.71,5.17-5,11-10,15.44-15.54C113.35,73.16,112.84,72.88,112.57,73.09Z"/><path class="cls-7" d="M130,59.73l-.69.27a.14.14,0,0,0-.06.22c-3,1.9-5.82,4.1-8.69,6.15-2.34,1.68-5.79,3.44-6.75,6.15-.19.52.68.82,1,.36,1.65-2.66,4.76-4.39,7.3-6.29,2.79-2.09,5.74-4.09,8.34-6.37C130.67,60,130.3,59.6,130,59.73Z"/><path class="cls-7" d="M129.94,56.7a45.33,45.33,0,0,1-6.87,5.83c-2.68,1.89-5.72,3.52-8.12,5.69-.38.34.1.89.55.66a58.27,58.27,0,0,0,7.79-5.14,37.71,37.71,0,0,0,7.3-6.59C130.87,56.81,130.24,56.39,129.94,56.7Z"/><path class="cls-7" d="M130.37,54.5a53.7,53.7,0,0,0-8.1,5.11c-2.47,1.83-5.25,3.84-7.07,6.23-.32.42.34.75.71.49,2.53-1.79,4.7-4.1,7.15-6s5.1-3.61,7.66-5.41C131,54.72,130.65,54.36,130.37,54.5Z"/><path class="cls-7" d="M129.57,52.45a35.61,35.61,0,0,0-8,5,33.61,33.61,0,0,0-6.83,6.29c-.31.41.35.79.73.5,2.42-1.89,4.49-4.15,6.9-6.07s5.13-3.49,7.46-5.45C130,52.6,129.78,52.37,129.57,52.45Z"/><path class="cls-7" d="M130.12,49a48.21,48.21,0,0,0-8,4.69c-2.12,1.36-4.21,2.78-6.23,4.26a4,4,0,0,0-1.5,1.12c-.53.6.26,1.28.92.83,2.72-1.88,5.39-3.83,8.12-5.71a75,75,0,0,0,7-4.85C130.61,49.17,130.35,48.91,130.12,49Z"/><path class="cls-7" d="M93.09,63.8c-.52.38-1,.82-1.46,1.23s-1.18.81-1.74,1.24a.4.4,0,0,0-.12.42.32.32,0,0,0,.12.2.57.57,0,0,0,.59.08,6.58,6.58,0,0,0,3.1-2.83C93.73,63.84,93.37,63.59,93.09,63.8Z"/><path class="cls-7" d="M92.17,61.3c-1.16.85-2.24,1.79-3.35,2.71a22.88,22.88,0,0,1-3,2.33.4.4,0,0,0-.34.06.64.64,0,0,0-.26.39.41.41,0,0,0,.22.46l.21.13a.65.65,0,0,0,.59,0,18,18,0,0,0,3.38-2.63,22.81,22.81,0,0,0,3-3.1C92.9,61.36,92.43,61.11,92.17,61.3Z"/><path class="cls-7" d="M92.13,57.91c-3.36,3.26-7.16,6-10.76,9-.45.38.13,1.08.65.78a47.46,47.46,0,0,0,10.71-9.21C93.08,58.08,92.51,57.55,92.13,57.91Z"/><path class="cls-7" d="M128.17,47.33c-.85-1.35-2.11.29-1.49.78-1.46.57-2.89,2-4,2.82a33.87,33.87,0,0,0-5.21,4,.39.39,0,0,0,.49.59c2.44-1.16,4.56-3.16,6.68-4.74,1.18-.87,2.34-1.75,3.5-2.63A.68.68,0,0,0,128.17,47.33Z"/><path class="cls-7" d="M124.9,47.06c-2.38,1.58-4.67,3.25-6.89,5-.31.24.11.74.44.52,2.37-1.6,4.65-3.28,6.85-5.07C125.57,47.31,125.21,46.87,124.9,47.06Z"/><path class="cls-7" d="M122.71,46.18A48.07,48.07,0,0,0,118,49.36c-1.58,1.15-3.84,2.42-4.83,4a.33.33,0,0,0,.4.47c1.6-.58,2.84-1.92,4.14-2.93,1.81-1.41,3.71-2.76,5.39-4.3C123.34,46.41,123,46,122.71,46.18Z"/><path class="cls-7" d="M120.59,45.67a33.39,33.39,0,0,0-9.08,6.09c-.56.53.32,1.33.89.81A48.71,48.71,0,0,1,121,46.3C121.41,46.05,121,45.46,120.59,45.67Z"/><path class="cls-7" d="M92.63,54.67A142.26,142.26,0,0,0,80,64.74c-.5.43.23,1,.74.67A74.09,74.09,0,0,0,92.9,55C93.05,54.83,92.85,54.52,92.63,54.67Z"/><path class="cls-7" d="M107.05,42.44c-5.27,3.75-10.43,7.6-15.43,11.64Q88,57,84.56,60a49.36,49.36,0,0,0-6.78,6.27c-.21.26.21.64.5.45a60.2,60.2,0,0,0,6.48-5.42q3.78-3.27,7.65-6.47c4.93-4.07,9.92-8.09,15-12C107.69,42.58,107.31,42.25,107.05,42.44Z"/><path class="cls-7" d="M104,41.55a100.41,100.41,0,0,0-12.56,9.19Q88.33,53.31,85.31,56c-2,1.75-4.4,3.54-5.83,5.69-.24.35.25.84.65.59,2.08-1.3,3.74-3.28,5.52-4.89,2-1.8,4-3.56,6.09-5.29,4.12-3.46,8.59-6.58,12.66-10.08C104.65,41.78,104.32,41.38,104,41.55Z"/><path class="cls-7" d="M101.45,40.6c-3.9,2.6-7.46,5.67-11.08,8.58-3.82,3.07-7.79,6.09-11.39,9.37-.59.54.31,1.26.88.79l0,0c3.71-2.77,7.19-5.85,10.73-8.8,3.76-3.12,7.73-6.14,11.2-9.53A.28.28,0,0,0,101.45,40.6Z"/><path class="cls-7" d="M98.85,39.91c-3.3,1.17-6.24,4.21-8.86,6.32q-2.56,2.06-5,4.2c-1.44,1.24-3.21,2.45-4.15,4-.18.32.19.66.54.49a18.51,18.51,0,0,0,4-3.14q2.47-2.14,5-4.24c1.47-1.23,3-2.42,4.47-3.62s3.26-2.28,4.33-3.8C99.17,40.05,99,39.85,98.85,39.91Z"/><path class="cls-7" d="M95.54,39.4a54.52,54.52,0,0,0-6.89,5A83.55,83.55,0,0,0,81.06,51c-.59.52.28,1.29.88.81,2.39-1.92,4.62-4,7-6S93.85,42.05,96,40C96.29,39.67,95.92,39.19,95.54,39.4Z"/><path class="cls-7" d="M118.19,44.71c-1.47,1-2.81,2.17-4.18,3.29a22.27,22.27,0,0,1-3.66,2.87A.32.32,0,0,0,110,51a.55.55,0,0,0-.08.55.6.6,0,0,0,.59.41c1.33-.09,2.55-1.65,3.47-2.43a45.68,45.68,0,0,0,4.73-4.37C119,44.84,118.56,44.45,118.19,44.71Z"/><path class="cls-7" d="M115.55,43.74c-1.32,1.38-2.72,2.71-4.17,4-.81.7-1.66,1.37-2.52,2l-1,.77-.94.64a1,1,0,0,0-.5.32.47.47,0,0,0-.46,0,.73.73,0,0,0-.42.66.55.55,0,0,0,.44.51c1.51.36,3.82-2.09,4.83-2.9a33.89,33.89,0,0,0,5.4-5.58C116.41,43.84,115.83,43.44,115.55,43.74Z"/><path class="cls-7" d="M112.4,43.65l-4.87,4c-.72.6-1.42,1.21-2.13,1.82-.36.3-.71.61-1.06.92l-.53.45c-.39.15-.55.3-.5.47a.25.25,0,0,0-.25,0l-.14.08a.37.37,0,0,0-.18.41l0,.18a.53.53,0,0,0,.51.36,1,1,0,0,0,.86-.28c1.12-.82,2.12-1.85,3.16-2.76,1.92-1.7,3.79-3.44,5.68-5.16C113.36,43.83,112.79,43.33,112.4,43.65Z"/><path class="cls-7" d="M109.14,42.93c-1.93,1.44-3.68,3.09-5.52,4.63s-3.77,3-5.46,4.67a.58.58,0,0,0,.74.88,58.35,58.35,0,0,0,10.78-9.69C110,43.07,109.52,42.64,109.14,42.93Z"/></g></g></svg>